<?xml version="1.0" encoding="UTF-8" standalone="no"?>
<svg
   viewBox="0 0 12 11"
   version="1.1"
   id="svg1"
   width="12"
   height="11"
   xmlns="http://www.w3.org/2000/svg"
   xmlns:svg="http://www.w3.org/2000/svg">
  <defs
     id="defs3051">
    <style
       type="text/css"
       id="current-color-scheme">
      .ColorScheme-Text {
        color:#232629;
      }
      </style>
  </defs>
  <path
     style="fill:currentColor;fill-opacity:1;stroke:none"
     d="M 8,0 C 7.0680195,0 6.2844627,0.6373007 6.0625,1.5 H 0 v 1 H 6.0625 C 6.2844627,3.3626993 7.0680195,4 8,4 8.931981,4 9.715537,3.3626993 9.9375,2.5 H 12 v -1 H 9.9375 C 9.715537,0.6373007 8.931981,0 8,0 Z M 3,7 C 2.0680191,7 1.2844626,7.637301 1.0625,8.5 H 0 v 1 H 1.0625 C 1.2844626,10.362699 2.0680191,11 3,11 3.9319809,11 4.7155374,10.362699 4.9375,9.5 H 5 7 12 v -1 H 7 5 4.9375 C 4.7155374,7.637301 3.9319809,7 3,7 Z M 3,8 C 3.55228,8 4,8.44772 4,9 4,9.55228 3.55228,10 3,10 2.44772,10 2,9.55228 2,9 2,8.44772 2.44772,8 3,8 Z"
     class="ColorScheme-Text"
     id="path1" />
</svg>
