<?xml version="1.0" encoding="UTF-8" standalone="no"?>
<svg
   viewBox="0 0 10.0003 12"
   version="1.1"
   id="svg1"
   width="10.0003"
   height="12"
   sodipodi:docname="user.svg"
   xmlns:inkscape="http://www.inkscape.org/namespaces/inkscape"
   xmlns:sodipodi="http://sodipodi.sourceforge.net/DTD/sodipodi-0.dtd"
   xmlns="http://www.w3.org/2000/svg"
   xmlns:svg="http://www.w3.org/2000/svg">
  <sodipodi:namedview
     id="namedview1"
     pagecolor="#ffffff"
     bordercolor="#000000"
     borderopacity="0.25"
     inkscape:showpageshadow="2"
     inkscape:pageopacity="0.0"
     inkscape:pagecheckerboard="0"
     inkscape:deskcolor="#d1d1d1">
    <inkscape:page
       x="0"
       y="0"
       width="10.0003"
       height="12"
       id="page2"
       margin="0"
       bleed="0" />
  </sodipodi:namedview>
  <defs
     id="defs3051">
    <style
       type="text/css"
       id="current-color-scheme">
      .ColorScheme-Text {
        color:#232629;
      }
      </style>
  </defs>
  <path
     style="fill:currentColor;fill-opacity:1;stroke:none"
     d="m 4.9999998,-5.1269531e-8 a 3,3 0 0 0 -3,2.999999951269531 3,3 0 0 0 3,3 3,3 0 0 0 3,-3 3,3 0 0 0 -3,-2.99999995126953 m 0,1.00000000126953 a 2,2 0 0 1 2,1.99999995 2,2 0 0 1 -2,2 2,2 0 0 1 -2,-2 2,2 0 0 1 2,-1.99999995 m 0,5.99999995 A 5,4.5 0 0 0 -2.2630637e-7,11.5 5,4.5 0 0 0 0.03319978,12 H 9.9631998 A 5,4.5 0 0 0 10.0003,11.5 5,4.5 0 0 0 5.0002998,6.9999999 m 5e-5,1 A 4,3.5 0 0 1 8.9554298,11 h -7.91 a 4,3.5 0 0 1 3.95508,-3.0000001"
     class="ColorScheme-Text"
     id="path1" />
</svg>
